<?xml version="1.0" encoding="UTF-8"?>
<!DOCTYPE svg PUBLIC "-//W3C//DTD SVG 1.1//EN" "http://www.w3.org/Graphics/SVG/1.1/DTD/svg11.dtd">
<!-- Creator: CorelDRAW X7 -->
<svg xmlns="http://www.w3.org/2000/svg" xml:space="preserve" width="42.3332mm" height="11.5992mm" version="1.1" style="shape-rendering:geometricPrecision; text-rendering:geometricPrecision; image-rendering:optimizeQuality; fill-rule:evenodd; clip-rule:evenodd"
viewBox="0 0 4233 1160"
 xmlns:xlink="http://www.w3.org/1999/xlink"
 data-name="Layer 1">
 <defs>
  <style type="text/css">
   <![CDATA[
    .str0 {stroke:#475569;stroke-width:7.62}
    .fil0 {fill:#475569}
    .fil2 {fill:#475569}
    .fil1 {fill:#475569;fill-rule:nonzero}
    .fil3 {fill:#38bdf8;fill-rule:nonzero}
   ]]>
  </style>
 </defs>
 <g id="Layer_x0020_1">
  <metadata id="CorelCorpID_0Corel-Layer"/>
  <g id="_1935286879696">
   <path class="fil0 str0" d="M943 237l-366 -217c-21,-12 -45,-19 -70,-19 -25,0 -49,7 -70,19l-366 217c-44,27 -71,74 -71,126 0,0 0,0 0,0l0 434c0,0 0,0 0,1 0,51 27,98 70,125l366 217c21,12 45,19 70,19 25,0 49,-7 70,-19l366 -217c44,-27 70,-74 70,-125 0,-1 0,-1 0,-1l0 -434c0,0 0,-1 0,-1 0,-51 -26,-98 -69,-125l0 0zm-48 534c0,0 0,1 0,1 0,3 -1,5 -2,6l-93 56c0,1 -1,1 -2,1 -1,0 -2,-1 -2,-3 0,0 0,0 0,0l0 67c0,-2 2,-5 4,-6l91 -54c0,-1 1,-1 2,-1 1,0 2,1 2,3 0,0 0,0 0,0l0 22 0 -92zm-326 -228c-43,25 -75,53 -75,105l0 426c0,31 13,51 32,57 -6,1 -13,2 -19,2 -21,0 -41,-5 -58,-16l-366 -217c-35,-22 -57,-61 -57,-103 0,0 0,0 0,0l0 -434c0,0 0,0 0,-1 0,-42 22,-81 57,-102l366 -217c17,-11 37,-16 57,-16 21,0 40,5 58,16l365 217c31,18 51,48 57,83 -12,-26 -40,-33 -71,-14l-346 214z"/>
   <path class="fil1" d="M1521 670l-204 0 -36 100 -83 0 175 -490 93 0 175 490 -84 0 -36 -100zm-22 -65l-80 -228 -80 228 160 0zm330 -28l178 193 -108 0 -144 -167 0 167 -80 0 0 -521 80 0 0 303 141 -170 111 0 -178 195zm545 -195l0 388 -80 0 0 -46c-13,16 -29,29 -50,38 -20,9 -42,14 -65,14 -30,0 -58,-6 -82,-19 -24,-13 -43,-32 -57,-56 -14,-25 -21,-55 -21,-91l0 -228 80 0 0 216c0,35 9,62 26,80 18,19 41,28 71,28 30,0 54,-9 72,-28 17,-18 26,-45 26,-80l0 -216 80 0zm260 -6c30,0 58,6 82,19 24,13 43,31 56,56 14,25 21,55 21,90l0 229 -80 0 0 -217c0,-34 -8,-61 -26,-80 -17,-18 -41,-27 -71,-27 -30,0 -54,9 -71,27 -18,19 -27,46 -27,80l0 217 -80 0 0 -388 80 0 0 45c13,-16 30,-29 51,-38 20,-9 42,-13 65,-13z"/>
   <path class="fil1" d="M3102 911c-39,0 -74,-7 -105,-19 -31,-13 -56,-32 -75,-57 -18,-24 -28,-54 -29,-89l139 0c2,19 8,34 20,45 12,10 27,15 46,15 19,0 34,-4 46,-13 11,-9 16,-21 16,-37 0,-13 -4,-24 -13,-33 -9,-8 -20,-15 -33,-21 -13,-5 -31,-12 -55,-19 -35,-11 -63,-21 -84,-32 -22,-10 -41,-26 -57,-47 -16,-21 -23,-48 -23,-82 0,-49 18,-88 54,-116 36,-29 83,-43 140,-43 59,0 107,14 143,43 36,28 55,67 58,117l-141 0c-1,-17 -8,-31 -19,-40 -12,-10 -27,-15 -45,-15 -16,0 -29,4 -38,12 -10,9 -15,21 -15,36 0,18 8,31 25,41 16,9 41,20 76,31 34,12 62,23 84,33 22,11 40,27 56,47 16,20 24,46 24,78 0,31 -8,58 -24,83 -15,25 -38,45 -67,60 -29,14 -64,22 -104,22zm431 0c-39,0 -74,-7 -105,-19 -31,-13 -56,-32 -75,-57 -18,-24 -28,-54 -29,-89l139 0c2,19 9,34 20,45 12,10 27,15 46,15 19,0 34,-4 46,-13 11,-9 16,-21 16,-37 0,-13 -4,-24 -13,-33 -9,-8 -20,-15 -33,-21 -13,-5 -31,-12 -55,-19 -34,-11 -63,-21 -84,-32 -22,-10 -41,-26 -57,-47 -15,-21 -23,-48 -23,-82 0,-49 18,-88 54,-116 36,-29 83,-43 141,-43 58,0 106,14 142,43 36,28 55,67 58,117l-141 0c-1,-17 -7,-31 -19,-40 -12,-10 -27,-15 -45,-15 -16,0 -28,4 -38,12 -10,9 -15,21 -15,36 0,18 9,31 25,41 16,9 41,20 76,31 34,12 63,23 84,33 22,11 40,27 56,47 16,20 24,46 24,78 0,31 -8,58 -24,83 -15,25 -38,45 -67,60 -29,14 -64,22 -104,22zm700 -540l0 534 -130 0 0 -220 -202 0 0 220 -131 0 0 -534 131 0 0 209 202 0 0 -209 130 0z"/>
   <rect class="fil2 str0" x="1199" y="858" width="1593.63" height="39.3562"/>
   <path class="fil3" d="M732 818l-104 63 -13 70 -43 26 64 -343 47 -29 115 234 -43 26 -23 -47zm-15 -32l-52 -109 -29 159 81 -50z"/>
  </g>
 </g>
</svg>
